<?xml version="1.0" standalone="no"?>
<!DOCTYPE svg PUBLIC "-//W3C//DTD SVG 20010904//EN"
 "http://www.w3.org/TR/2001/REC-SVG-20010904/DTD/svg10.dtd">
<svg version="1.0" xmlns="http://www.w3.org/2000/svg"
 width="2000.000000pt" height="500.000000pt" viewBox="0 0 2000.000000 500.000000"
 preserveAspectRatio="xMidYMid meet">

<g transform="translate(0.000000,500.000000) scale(0.100000,-0.100000)"
fill="#000000" stroke="none">
<path d="M2202 4133 c-22 -50 -512 -1045 -518 -1052 -5 -5 -37 -10 -634 -97
-289 -41 -540 -79 -558 -82 l-33 -7 228 -221 c125 -122 325 -316 443 -431
l214 -209 -68 -395 c-37 -217 -84 -487 -104 -601 -20 -114 -33 -210 -30 -213
3 -4 136 62 295 145 158 84 371 196 473 250 102 54 217 113 255 133 l70 34
155 -82 c453 -240 923 -485 930 -485 4 0 1 35 -6 78 -8 42 -34 194 -59 337
-24 143 -65 381 -91 529 l-46 270 104 101 c56 55 255 249 441 430 325 317 337
330 310 336 -15 4 -287 44 -603 89 -316 45 -580 87 -587 94 -12 11 -206 399
-433 864 -62 127 -117 232 -121 232 -3 0 -16 -21 -27 -47z"/>
<path d="M5917 3783 c-109 -219 -232 -468 -275 -553 l-77 -155 -195 -28 c-482
-69 -1014 -147 -1017 -150 -4 -5 356 -360 828 -818 l47 -45 -50 -290 c-136
-797 -156 -919 -153 -923 3 -3 472 240 760 394 33 18 121 64 196 103 l135 71
390 -205 c214 -113 460 -243 547 -289 86 -45 157 -79 157 -74 0 5 -45 269 -99
587 -55 317 -101 588 -103 602 -3 26 -28 1 645 658 131 127 236 232 234 232
-4 0 -780 111 -1087 156 -63 9 -121 19 -127 23 -12 6 -254 487 -458 909 -52
105 -95 192 -97 192 -2 0 -93 -179 -201 -397z"/>
<path d="M9918 4023 c-78 -161 -459 -934 -465 -942 -2 -3 -274 -44 -604 -92
-330 -48 -605 -89 -610 -91 -6 -2 99 -110 233 -239 134 -130 333 -324 442
-430 l199 -194 -47 -275 c-78 -458 -125 -730 -144 -837 -10 -57 -15 -103 -11
-103 6 0 725 375 1017 531 l73 39 62 -34 c34 -18 159 -84 277 -146 118 -62
251 -132 295 -155 339 -180 448 -236 453 -231 3 4 -16 131 -42 284 -26 152
-73 423 -103 602 l-56 324 134 131 c74 71 273 265 442 429 169 165 305 301
304 303 -2 1 -269 41 -593 88 -324 47 -598 87 -610 90 -14 3 -36 38 -77 122
-136 286 -483 982 -488 983 -3 0 -40 -71 -81 -157z"/>
<path d="M13655 3723 c-124 -252 -247 -501 -273 -553 l-48 -95 -220 -31 c-395
-57 -999 -146 -1001 -148 -1 -1 19 -22 45 -46 96 -92 443 -431 638 -622 l201
-198 -33 -193 c-18 -105 -65 -376 -103 -601 -39 -226 -69 -412 -66 -414 3 -3
413 210 990 514 l99 53 121 -63 c66 -35 203 -108 305 -161 102 -54 292 -153
423 -222 131 -69 240 -123 242 -121 2 2 -18 132 -45 288 -27 157 -67 393 -90
525 -22 132 -47 275 -55 318 l-15 78 228 222 c125 122 324 316 442 432 119
115 215 211 215 212 -1 2 -384 58 -910 134 -154 22 -288 42 -298 45 -11 4 -70
111 -164 302 -80 163 -201 411 -269 550 -69 138 -127 252 -129 252 -3 0 -106
-206 -230 -457z"/>
<path d="M17680 4008 c-46 -95 -165 -337 -265 -538 -100 -201 -184 -372 -186
-379 -3 -9 -47 -20 -129 -32 -125 -19 -607 -89 -924 -135 -93 -13 -171 -26
-173 -27 -3 -3 326 -326 745 -733 l134 -129 -56 -330 c-31 -182 -78 -455 -104
-607 -26 -153 -45 -278 -41 -278 4 0 40 18 81 39 40 21 208 110 373 196 339
178 435 229 551 291 l82 44 542 -286 c298 -157 544 -283 547 -280 3 3 -9 85
-25 183 -17 98 -63 369 -103 603 l-72 425 185 180 c524 508 698 679 695 681
-2 2 -34 8 -73 14 -38 5 -287 41 -554 80 -267 39 -509 74 -538 77 l-53 6 -259
523 c-142 287 -264 536 -271 553 -8 17 -16 31 -20 31 -3 0 -43 -78 -89 -172z"/>
</g>
</svg>
