<?xml version="1.0" standalone="no"?>
<!DOCTYPE svg PUBLIC "-//W3C//DTD SVG 20010904//EN"
 "http://www.w3.org/TR/2001/REC-SVG-20010904/DTD/svg10.dtd">
<svg version="1.0" xmlns="http://www.w3.org/2000/svg"
 width="300.000000pt" height="300.000000pt" viewBox="0 0 300.000000 300.000000"
 preserveAspectRatio="xMidYMid meet">

<g transform="translate(0.000000,300.000000) scale(0.100000,-0.100000)"
fill="#000000" stroke="none">
<path d="M0 1500 l0 -1500 1500 0 1500 0 0 1500 0 1500 -1500 0 -1500 0 0
-1500z m2478 1094 c28 -14 70 -46 92 -71 71 -81 70 -71 70 -759 0 -591 -1
-615 -20 -667 -24 -63 -84 -127 -150 -160 -45 -22 -46 -22 -664 -25 -688 -3
-682 -3 -768 63 -31 23 -56 55 -77 96 l-31 62 0 627 c0 702 -2 681 72 765 39
45 78 70 128 86 14 4 311 8 661 8 l635 1 52 -26z m-1688 -608 l0 -74 -94 -4
c-103 -4 -134 -17 -166 -71 -19 -31 -20 -55 -20 -638 l0 -606 23 -34 c47 -71
25 -69 680 -69 636 0 626 -1 677 55 22 24 26 37 30 128 l5 102 73 3 72 3 0
-98 c0 -117 -10 -156 -54 -220 -25 -36 -49 -57 -101 -83 l-68 -35 -636 0 -636
0 -51 27 c-28 15 -70 48 -92 73 -75 85 -73 64 -70 771 l3 629 27 51 c28 53 77
103 128 129 45 23 97 33 188 34 l82 1 0 -74z"/>
<path d="M1195 2470 c-47 -10 -74 -28 -95 -63 -19 -31 -20 -56 -20 -641 0
-593 1 -609 20 -641 41 -67 24 -65 685 -65 645 0 622 -2 675 55 l25 27 3 617
2 617 -23 35 c-43 63 -23 62 -661 64 -320 1 -594 -1 -611 -5z"/>
</g>
</svg>
