<?xml version="1.0" standalone="no"?>
<!DOCTYPE svg PUBLIC "-//W3C//DTD SVG 20010904//EN"
 "http://www.w3.org/TR/2001/REC-SVG-20010904/DTD/svg10.dtd">
<svg version="1.0" xmlns="http://www.w3.org/2000/svg"
 width="225.000000pt" height="225.000000pt" viewBox="0 0 225.000000 225.000000"
 preserveAspectRatio="xMidYMid meet">

<g transform="translate(0.000000,225.000000) scale(0.100000,-0.100000)"
fill="#000000" stroke="none">
<path d="M1004 2085 c-104 -23 -191 -71 -275 -155 -88 -87 -131 -165 -155
-280 -47 -227 80 -468 304 -577 218 -105 459 -66 627 102 223 223 215 569 -19
783 -130 118 -308 165 -482 127z m235 -134 c156 -49 263 -169 293 -330 50
-265 -208 -522 -475 -472 -222 41 -379 259 -339 472 29 159 129 274 281 326
81 28 160 29 240 4z"/>
<path d="M705 913 c-121 -18 -235 -66 -337 -143 -156 -118 -266 -327 -271
-516 -3 -115 -110 -104 1024 -104 l978 0 27 23 c25 22 27 29 25 89 -6 236
-168 475 -396 587 -131 63 -139 64 -600 67 -231 1 -433 0 -450 -3z m878 -158
c201 -42 370 -211 416 -415 l9 -40 -884 0 -884 0 6 28 c40 169 138 300 280
374 121 64 143 66 589 67 311 1 415 -3 468 -14z"/>
</g>
</svg>
